# xmcd
#
# Track frame offsets:
#	150
#	16988
#	26743
#	51075
#	68950
#	87580
#	99101
#	124342
#	142822
#	155645
#	181450
#	204111
#	218552
#	237187
#	252118
#
# Disc length: 3537 seconds
#
# Revision: 0
# Processed by: cddbd v1.5.2PL0 Copyright (c) Steve Scherf et al.
# Submitted via: dBpowerAMP V4.0
#
DISCID=c60dcf0f
DTITLE=Blue Bone Express - The Early Years 2004 - 2007
DYEAR=2008
DGENRE=Blues
TTITLE0=Midnight in Moscow
TTITLE1=That's a Plenty
TTITLE2=Just a Closer Walk
TTITLE3=Shake That Thing
TTITLE4=[I] Omni-Present Blues
TTITLE5=[II] Sweltering Solar Rag
TTITLE6=[III] Dance of Savage Civility
TTITLE7=Bourbon Street Parade
TTITLE8=Balloon Song
TTITLE9=Skeleton Waltz
TTITLE10=You Can Depend on Me
TTITLE11=Drive My Car
TTITLE12=Inside Obtuse
TTITLE13=Dead Man Blues
TTITLE14=Midnight in Moscow (reprise)
EXTD=
EXTT0=
EXTT1=
EXTT2=
EXTT3=
EXTT4=
EXTT5=
EXTT6=
EXTT7=
EXTT8=
EXTT9=
EXTT10=
EXTT11=
EXTT12=
EXTT13=
EXTT14=
PLAYORDER=
